<svg xmlns="http://www.w3.org/2000/svg" xmlns:xlink="http://www.w3.org/1999/xlink" width="500" zoomAndPan="magnify" viewBox="0 0 375 374.999991" height="500" preserveAspectRatio="xMidYMid meet" version="1.0"><defs><clipPath id="e57e7a5c40"><path d="M 58.898438 58.898438 L 116.769531 58.898438 L 116.769531 177.855469 L 58.898438 177.855469 Z M 58.898438 58.898438 " clip-rule="nonzero"/></clipPath><clipPath id="6e520ad814"><path d="M 0.898438 0.898438 L 58.769531 0.898438 L 58.769531 119.855469 L 0.898438 119.855469 Z M 0.898438 0.898438 " clip-rule="nonzero"/></clipPath><clipPath id="14106deb97"><rect x="0" width="59" y="0" height="120"/></clipPath><clipPath id="4a772b9253"><path d="M 58.894531 58.898438 L 177.851562 58.898438 L 177.851562 116.769531 L 58.894531 116.769531 Z M 58.894531 58.898438 " clip-rule="nonzero"/></clipPath><clipPath id="01436bf35f"><path d="M 0.894531 0.898438 L 119.851562 0.898438 L 119.851562 58.769531 L 0.894531 58.769531 Z M 0.894531 0.898438 " clip-rule="nonzero"/></clipPath><clipPath id="90e42b2cd8"><rect x="0" width="120" y="0" height="59"/></clipPath><clipPath id="45af71af88"><path d="M 258.226562 197.144531 L 316.097656 197.144531 L 316.097656 316.101562 L 258.226562 316.101562 Z M 258.226562 197.144531 " clip-rule="nonzero"/></clipPath><clipPath id="f40fecf60b"><path d="M 0.226562 0.144531 L 58.097656 0.144531 L 58.097656 119.101562 L 0.226562 119.101562 Z M 0.226562 0.144531 " clip-rule="nonzero"/></clipPath><clipPath id="210ecc8db1"><rect x="0" width="59" y="0" height="120"/></clipPath><clipPath id="5bc8560195"><path d="M 197.144531 258.230469 L 316.101562 258.230469 L 316.101562 316.101562 L 197.144531 316.101562 Z M 197.144531 258.230469 " clip-rule="nonzero"/></clipPath><clipPath id="fcbf78d396"><path d="M 0.144531 0.230469 L 119.101562 0.230469 L 119.101562 58.101562 L 0.144531 58.101562 Z M 0.144531 0.230469 " clip-rule="nonzero"/></clipPath><clipPath id="e744780c2f"><rect x="0" width="120" y="0" height="59"/></clipPath><clipPath id="fc55353574"><path d="M 58.886719 200.359375 L 174.632812 200.359375 L 174.632812 316.101562 L 58.886719 316.101562 Z M 58.886719 200.359375 " clip-rule="nonzero"/></clipPath><clipPath id="75c5d33334"><path d="M 58.886719 200.359375 C 89.371094 200.359375 119.175781 212.707031 140.730469 234.261719 C 162.285156 255.816406 174.632812 285.621094 174.632812 316.101562 L 115.582031 316.101562 C 115.582031 301.171875 109.535156 286.570312 98.976562 276.015625 C 88.417969 265.457031 73.820312 259.410156 58.886719 259.410156 Z M 58.886719 200.359375 " clip-rule="nonzero"/></clipPath><clipPath id="deec81943a"><path d="M 0.886719 0.359375 L 116.632812 0.359375 L 116.632812 116.101562 L 0.886719 116.101562 Z M 0.886719 0.359375 " clip-rule="nonzero"/></clipPath><clipPath id="790a925aba"><path d="M 0.886719 0.359375 C 31.371094 0.359375 61.175781 12.707031 82.730469 34.261719 C 104.285156 55.816406 116.632812 85.621094 116.632812 116.101562 L 57.582031 116.101562 C 57.582031 101.171875 51.535156 86.570312 40.976562 76.015625 C 30.417969 65.457031 15.820312 59.410156 0.886719 59.410156 Z M 0.886719 0.359375 " clip-rule="nonzero"/></clipPath><clipPath id="bc11c86ab2"><rect x="0" width="117" y="0" height="117"/></clipPath><clipPath id="9d6475cc26"><path d="M 200 58.886719 L 316.101562 58.886719 L 316.101562 174.632812 L 200 174.632812 Z M 200 58.886719 " clip-rule="nonzero"/></clipPath><clipPath id="30b055f133"><path d="M 316.101562 174.632812 C 285.621094 174.632812 255.816406 162.285156 234.261719 140.730469 C 212.707031 119.175781 200.359375 89.371094 200.359375 58.886719 L 316.101562 58.886719 Z M 316.101562 174.632812 " clip-rule="nonzero"/></clipPath><clipPath id="aaf61ab276"><path d="M 0.160156 0.886719 L 116.101562 0.886719 L 116.101562 116.632812 L 0.160156 116.632812 Z M 0.160156 0.886719 " clip-rule="nonzero"/></clipPath><clipPath id="5c0df09103"><path d="M 116.101562 116.632812 C 85.621094 116.632812 55.816406 104.285156 34.261719 82.730469 C 12.707031 61.175781 0.359375 31.371094 0.359375 0.886719 L 116.101562 0.886719 Z M 116.101562 116.632812 " clip-rule="nonzero"/></clipPath><clipPath id="030a714ea9"><rect x="0" width="117" y="0" height="117"/></clipPath></defs><rect x="-37.5" width="450" fill="#ffffff" y="-37.499999" height="449.999989" fill-opacity="1"/><rect x="-37.5" width="450" fill="#050a30" y="-37.499999" height="449.999989" fill-opacity="1"/><g clip-path="url(#e57e7a5c40)"><g transform="matrix(1, 0, 0, 1, 58, 58)"><g clip-path="url(#14106deb97)"><g clip-path="url(#6e520ad814)"><path fill="#ffffff" d="M 0.898438 0.898438 L 58.769531 0.898438 L 58.769531 119.804688 L 0.898438 119.804688 Z M 0.898438 0.898438 " fill-opacity="1" fill-rule="nonzero"/></g></g></g></g><g clip-path="url(#4a772b9253)"><g transform="matrix(1, 0, 0, 1, 58, 58)"><g clip-path="url(#90e42b2cd8)"><g clip-path="url(#01436bf35f)"><path fill="#ffffff" d="M 119.851562 0.898438 L 119.851562 58.769531 L 0.945312 58.769531 L 0.945312 0.898438 Z M 119.851562 0.898438 " fill-opacity="1" fill-rule="nonzero"/></g></g></g></g><g clip-path="url(#45af71af88)"><g transform="matrix(1, 0, 0, 1, 258, 197)"><g clip-path="url(#210ecc8db1)"><g clip-path="url(#f40fecf60b)"><path fill="#ffffff" d="M 58.097656 119.101562 L 0.226562 119.101562 L 0.226562 0.195312 L 58.097656 0.195312 Z M 58.097656 119.101562 " fill-opacity="1" fill-rule="nonzero"/></g></g></g></g><g clip-path="url(#5bc8560195)"><g transform="matrix(1, 0, 0, 1, 197, 258)"><g clip-path="url(#e744780c2f)"><g clip-path="url(#fcbf78d396)"><path fill="#ffffff" d="M 0.144531 58.101562 L 0.144531 0.230469 L 119.050781 0.230469 L 119.050781 58.101562 Z M 0.144531 58.101562 " fill-opacity="1" fill-rule="nonzero"/></g></g></g></g><g clip-path="url(#fc55353574)"><g clip-path="url(#75c5d33334)"><g transform="matrix(1, 0, 0, 1, 58, 200)"><g clip-path="url(#bc11c86ab2)"><g clip-path="url(#deec81943a)"><g clip-path="url(#790a925aba)"><path fill="#ffffff" d="M 116.632812 0.359375 L 116.632812 116.101562 L 0.886719 116.101562 L 0.886719 0.359375 Z M 116.632812 0.359375 " fill-opacity="1" fill-rule="nonzero"/></g></g></g></g></g></g><g clip-path="url(#9d6475cc26)"><g clip-path="url(#30b055f133)"><g transform="matrix(1, 0, 0, 1, 200, 58)"><g clip-path="url(#030a714ea9)"><g clip-path="url(#aaf61ab276)"><g clip-path="url(#5c0df09103)"><path fill="#dc2618" d="M 0.359375 116.632812 L 0.359375 0.886719 L 116.101562 0.886719 L 116.101562 116.632812 Z M 0.359375 116.632812 " fill-opacity="1" fill-rule="nonzero"/></g></g></g></g></g></g></svg>