<svg xmlns="http://www.w3.org/2000/svg" xmlns:xlink="http://www.w3.org/1999/xlink" width="500" zoomAndPan="magnify" viewBox="0 0 375 374.999991" height="500" preserveAspectRatio="xMidYMid meet" version="1.0"><defs><clipPath id="5f915d55b7"><path d="M 0.898438 0.898438 L 58.769531 0.898438 L 58.769531 119.855469 L 0.898438 119.855469 Z M 0.898438 0.898438 " clip-rule="nonzero"/></clipPath><clipPath id="eb332c079c"><path d="M 0.898438 0.898438 L 58.769531 0.898438 L 58.769531 119.855469 L 0.898438 119.855469 Z M 0.898438 0.898438 " clip-rule="nonzero"/></clipPath><clipPath id="af01d02c73"><rect x="0" width="59" y="0" height="120"/></clipPath><clipPath id="147d02f933"><path d="M 0.898438 0.898438 L 119.855469 0.898438 L 119.855469 58.769531 L 0.898438 58.769531 Z M 0.898438 0.898438 " clip-rule="nonzero"/></clipPath><clipPath id="e1afb41949"><path d="M 0.898438 0.898438 L 119.855469 0.898438 L 119.855469 58.769531 L 0.898438 58.769531 Z M 0.898438 0.898438 " clip-rule="nonzero"/></clipPath><clipPath id="38b4d56c44"><rect x="0" width="120" y="0" height="59"/></clipPath><clipPath id="0025da150d"><path d="M 200.230469 139.144531 L 258.101562 139.144531 L 258.101562 258.101562 L 200.230469 258.101562 Z M 200.230469 139.144531 " clip-rule="nonzero"/></clipPath><clipPath id="7f47443ac9"><path d="M 0.230469 0.144531 L 58.101562 0.144531 L 58.101562 119.101562 L 0.230469 119.101562 Z M 0.230469 0.144531 " clip-rule="nonzero"/></clipPath><clipPath id="ffffe1a268"><rect x="0" width="59" y="0" height="120"/></clipPath><clipPath id="9fc7a4e3c3"><path d="M 139.144531 200.230469 L 258.101562 200.230469 L 258.101562 258.101562 L 139.144531 258.101562 Z M 139.144531 200.230469 " clip-rule="nonzero"/></clipPath><clipPath id="ad1f87b8d9"><path d="M 0.144531 0.230469 L 119.101562 0.230469 L 119.101562 58.101562 L 0.144531 58.101562 Z M 0.144531 0.230469 " clip-rule="nonzero"/></clipPath><clipPath id="eaa50be814"><rect x="0" width="120" y="0" height="59"/></clipPath><clipPath id="c72e189f8d"><path d="M 0.898438 142.359375 L 116.640625 142.359375 L 116.640625 258.101562 L 0.898438 258.101562 Z M 0.898438 142.359375 " clip-rule="nonzero"/></clipPath><clipPath id="c79cdef553"><path d="M 0.898438 142.359375 C 31.378906 142.359375 61.183594 154.707031 82.738281 176.261719 C 104.292969 197.816406 116.640625 227.621094 116.640625 258.101562 L 57.589844 258.101562 C 57.589844 243.171875 51.542969 228.570312 40.984375 218.015625 C 30.429688 207.457031 15.828125 201.410156 0.898438 201.410156 Z M 0.898438 142.359375 " clip-rule="nonzero"/></clipPath><clipPath id="b9f2a3d287"><path d="M 0.898438 0.359375 L 116.640625 0.359375 L 116.640625 116.101562 L 0.898438 116.101562 Z M 0.898438 0.359375 " clip-rule="nonzero"/></clipPath><clipPath id="75157ea886"><path d="M 0.898438 0.359375 C 31.378906 0.359375 61.183594 12.707031 82.738281 34.261719 C 104.292969 55.816406 116.640625 85.621094 116.640625 116.101562 L 57.589844 116.101562 C 57.589844 101.171875 51.542969 86.570312 40.984375 76.015625 C 30.429688 65.457031 15.828125 59.410156 0.898438 59.410156 Z M 0.898438 0.359375 " clip-rule="nonzero"/></clipPath><clipPath id="f88045b1f0"><rect x="0" width="117" y="0" height="117"/></clipPath><clipPath id="00bb0a70dd"><path d="M 142 0.898438 L 258.101562 0.898438 L 258.101562 116.640625 L 142 116.640625 Z M 142 0.898438 " clip-rule="nonzero"/></clipPath><clipPath id="1a1421c217"><path d="M 258.101562 116.640625 C 227.621094 116.640625 197.816406 104.292969 176.261719 82.738281 C 154.707031 61.183594 142.359375 31.378906 142.359375 0.898438 L 258.101562 0.898438 Z M 258.101562 116.640625 " clip-rule="nonzero"/></clipPath><clipPath id="7b82909216"><path d="M 0.160156 0.898438 L 116.101562 0.898438 L 116.101562 116.640625 L 0.160156 116.640625 Z M 0.160156 0.898438 " clip-rule="nonzero"/></clipPath><clipPath id="2cf972a6bf"><path d="M 116.101562 116.640625 C 85.621094 116.640625 55.816406 104.292969 34.261719 82.738281 C 12.707031 61.183594 0.359375 31.378906 0.359375 0.898438 L 116.101562 0.898438 Z M 116.101562 116.640625 " clip-rule="nonzero"/></clipPath><clipPath id="ea9a87445d"><rect x="0" width="117" y="0" height="117"/></clipPath><clipPath id="4e88c37cc2"><rect x="0" width="259" y="0" height="259"/></clipPath></defs><rect x="-37.5" width="450" fill="#ffffff" y="-37.499999" height="449.999989" fill-opacity="1"/><rect x="-37.5" width="450" fill="#ffffff" y="-37.499999" height="449.999989" fill-opacity="1"/><g transform="matrix(1, 0, 0, 1, 58, 58)"><g clip-path="url(#4e88c37cc2)"><g clip-path="url(#5f915d55b7)"><g transform="matrix(1, 0, 0, 1, -0.000000000000007105, 0)"><g clip-path="url(#af01d02c73)"><g clip-path="url(#eb332c079c)"><path fill="#050a30" d="M 0.898438 0.898438 L 58.769531 0.898438 L 58.769531 119.804688 L 0.898438 119.804688 Z M 0.898438 0.898438 " fill-opacity="1" fill-rule="nonzero"/></g></g></g></g><g clip-path="url(#147d02f933)"><g transform="matrix(1, 0, 0, 1, -0.000000000000007105, 0)"><g clip-path="url(#38b4d56c44)"><g clip-path="url(#e1afb41949)"><path fill="#050a30" d="M 119.855469 0.898438 L 119.855469 58.769531 L 0.945312 58.769531 L 0.945312 0.898438 Z M 119.855469 0.898438 " fill-opacity="1" fill-rule="nonzero"/></g></g></g></g><g clip-path="url(#0025da150d)"><g transform="matrix(1, 0, 0, 1, 200, 139)"><g clip-path="url(#ffffe1a268)"><g clip-path="url(#7f47443ac9)"><path fill="#050a30" d="M 58.101562 119.101562 L 0.230469 119.101562 L 0.230469 0.195312 L 58.101562 0.195312 Z M 58.101562 119.101562 " fill-opacity="1" fill-rule="nonzero"/></g></g></g></g><g clip-path="url(#9fc7a4e3c3)"><g transform="matrix(1, 0, 0, 1, 139, 200)"><g clip-path="url(#eaa50be814)"><g clip-path="url(#ad1f87b8d9)"><path fill="#050a30" d="M 0.144531 58.101562 L 0.144531 0.230469 L 119.054688 0.230469 L 119.054688 58.101562 Z M 0.144531 58.101562 " fill-opacity="1" fill-rule="nonzero"/></g></g></g></g><g clip-path="url(#c72e189f8d)"><g clip-path="url(#c79cdef553)"><g transform="matrix(1, 0, 0, 1, -0.000000000000007105, 142)"><g clip-path="url(#f88045b1f0)"><g clip-path="url(#b9f2a3d287)"><g clip-path="url(#75157ea886)"><path fill="#050a30" d="M 116.640625 0.359375 L 116.640625 116.101562 L 0.898438 116.101562 L 0.898438 0.359375 Z M 116.640625 0.359375 " fill-opacity="1" fill-rule="nonzero"/></g></g></g></g></g></g><g clip-path="url(#00bb0a70dd)"><g clip-path="url(#1a1421c217)"><g transform="matrix(1, 0, 0, 1, 142, 0)"><g clip-path="url(#ea9a87445d)"><g clip-path="url(#7b82909216)"><g clip-path="url(#2cf972a6bf)"><path fill="#dc2618" d="M 0.359375 116.640625 L 0.359375 0.898438 L 116.101562 0.898438 L 116.101562 116.640625 Z M 0.359375 116.640625 " fill-opacity="1" fill-rule="nonzero"/></g></g></g></g></g></g></g></g></svg>