<svg xmlns="http://www.w3.org/2000/svg" xmlns:xlink="http://www.w3.org/1999/xlink" width="1000" zoomAndPan="magnify" viewBox="0 0 750 225" height="300" preserveAspectRatio="xMidYMid meet" version="1.0"><defs><g/><clipPath id="5ede395135"><path d="M 147 0.601562 L 675.238281 0.601562 L 675.238281 150.839844 L 147 150.839844 Z M 147 0.601562 " clip-rule="nonzero"/></clipPath><clipPath id="cc662c47ec"><rect x="0" width="529" y="0" height="151"/></clipPath><clipPath id="12874000b3"><path d="M 0.558594 6.992188 L 29.558594 6.992188 L 29.558594 66.609375 L 0.558594 66.609375 Z M 0.558594 6.992188 " clip-rule="nonzero"/></clipPath><clipPath id="6339f2c490"><path d="M 0.558594 0.992188 L 29.558594 0.992188 L 29.558594 60.609375 L 0.558594 60.609375 Z M 0.558594 0.992188 " clip-rule="nonzero"/></clipPath><clipPath id="0a9d24ccb5"><rect x="0" width="30" y="0" height="61"/></clipPath><clipPath id="4a35167221"><path d="M 0.558594 6.992188 L 60.175781 6.992188 L 60.175781 35.996094 L 0.558594 35.996094 Z M 0.558594 6.992188 " clip-rule="nonzero"/></clipPath><clipPath id="a0498d3c3f"><path d="M 0.558594 0.992188 L 60.175781 0.992188 L 60.175781 29.996094 L 0.558594 29.996094 Z M 0.558594 0.992188 " clip-rule="nonzero"/></clipPath><clipPath id="01a6ef148d"><rect x="0" width="61" y="0" height="30"/></clipPath><clipPath id="50010b6cec"><path d="M 100.453125 76.277344 L 129.457031 76.277344 L 129.457031 135.890625 L 100.453125 135.890625 Z M 100.453125 76.277344 " clip-rule="nonzero"/></clipPath><clipPath id="fbf3df055b"><path d="M 0.453125 0.277344 L 29.457031 0.277344 L 29.457031 59.890625 L 0.453125 59.890625 Z M 0.453125 0.277344 " clip-rule="nonzero"/></clipPath><clipPath id="5a5db18b59"><rect x="0" width="30" y="0" height="60"/></clipPath><clipPath id="546da63fec"><path d="M 69.839844 106.890625 L 129.457031 106.890625 L 129.457031 135.890625 L 69.839844 135.890625 Z M 69.839844 106.890625 " clip-rule="nonzero"/></clipPath><clipPath id="2b7f8ede97"><path d="M 0.839844 0.890625 L 60.457031 0.890625 L 60.457031 29.890625 L 0.839844 29.890625 Z M 0.839844 0.890625 " clip-rule="nonzero"/></clipPath><clipPath id="0e93511e79"><rect x="0" width="61" y="0" height="30"/></clipPath><clipPath id="14d391c51a"><path d="M 0.558594 77.886719 L 58.5625 77.886719 L 58.5625 135.890625 L 0.558594 135.890625 Z M 0.558594 77.886719 " clip-rule="nonzero"/></clipPath><clipPath id="2070e1c93e"><path d="M 0.558594 77.886719 C 15.835938 77.886719 30.773438 84.074219 41.574219 94.875 C 52.375 105.679688 58.5625 120.617188 58.5625 135.890625 L 28.972656 135.890625 C 28.972656 128.410156 25.941406 121.09375 20.648438 115.800781 C 15.359375 110.511719 8.039062 107.480469 0.558594 107.480469 Z M 0.558594 77.886719 " clip-rule="nonzero"/></clipPath><clipPath id="90e2d4b950"><path d="M 0.558594 0.886719 L 58.5625 0.886719 L 58.5625 58.890625 L 0.558594 58.890625 Z M 0.558594 0.886719 " clip-rule="nonzero"/></clipPath><clipPath id="1e511cd527"><path d="M 0.558594 0.886719 C 15.835938 0.886719 30.773438 7.074219 41.574219 17.875 C 52.375 28.679688 58.5625 43.617188 58.5625 58.890625 L 28.972656 58.890625 C 28.972656 51.410156 25.941406 44.09375 20.648438 38.800781 C 15.359375 33.511719 8.039062 30.480469 0.558594 30.480469 Z M 0.558594 0.886719 " clip-rule="nonzero"/></clipPath><clipPath id="6aa3949766"><rect x="0" width="59" y="0" height="59"/></clipPath><clipPath id="7bd18349f6"><path d="M 71.226562 6.992188 L 129.457031 6.992188 L 129.457031 64.996094 L 71.226562 64.996094 Z M 71.226562 6.992188 " clip-rule="nonzero"/></clipPath><clipPath id="10e22279d4"><path d="M 129.457031 64.996094 C 114.179688 64.996094 99.242188 58.808594 88.441406 48.007812 C 77.640625 37.207031 71.453125 22.269531 71.453125 6.992188 L 129.457031 6.992188 Z M 129.457031 64.996094 " clip-rule="nonzero"/></clipPath><clipPath id="5d57421276"><path d="M 0.398438 0.992188 L 58.457031 0.992188 L 58.457031 58.996094 L 0.398438 58.996094 Z M 0.398438 0.992188 " clip-rule="nonzero"/></clipPath><clipPath id="9a08f2d9db"><path d="M 58.457031 58.996094 C 43.179688 58.996094 28.242188 52.808594 17.441406 42.007812 C 6.640625 31.207031 0.453125 16.269531 0.453125 0.992188 L 58.457031 0.992188 Z M 58.457031 58.996094 " clip-rule="nonzero"/></clipPath><clipPath id="1f3156d7dd"><rect x="0" width="59" y="0" height="59"/></clipPath><clipPath id="72fed6d4c5"><rect x="0" width="676" y="0" height="151"/></clipPath></defs><g transform="matrix(1, 0, 0, 1, 39, 39)"><g clip-path="url(#72fed6d4c5)"><g clip-path="url(#5ede395135)"><g transform="matrix(1, 0, 0, 1, 147, -0.000000000000007105)"><g clip-path="url(#cc662c47ec)"><g fill="#050a30" fill-opacity="1"><g transform="translate(0.229832, 112.018258)"><g><path d="M 3.765625 -37.671875 C 3.765625 -45.066406 5.429688 -51.6875 8.765625 -57.53125 C 12.109375 -63.382812 16.664062 -67.941406 22.4375 -71.203125 C 28.21875 -74.472656 34.695312 -76.109375 41.875 -76.109375 C 50.269531 -76.109375 57.625 -73.953125 63.9375 -69.640625 C 70.25 -65.335938 74.660156 -59.382812 77.171875 -51.78125 L 59.84375 -51.78125 C 58.125 -55.363281 55.703125 -58.050781 52.578125 -59.84375 C 49.460938 -61.644531 45.859375 -62.546875 41.765625 -62.546875 C 37.390625 -62.546875 33.492188 -61.519531 30.078125 -59.46875 C 26.671875 -57.425781 24.015625 -54.535156 22.109375 -50.796875 C 20.210938 -47.066406 19.265625 -42.691406 19.265625 -37.671875 C 19.265625 -32.722656 20.210938 -28.363281 22.109375 -24.59375 C 24.015625 -20.820312 26.671875 -17.914062 30.078125 -15.875 C 33.492188 -13.832031 37.390625 -12.8125 41.765625 -12.8125 C 45.859375 -12.8125 49.460938 -13.722656 52.578125 -15.546875 C 55.703125 -17.378906 58.125 -20.09375 59.84375 -23.6875 L 77.171875 -23.6875 C 74.660156 -16 70.265625 -10.019531 63.984375 -5.75 C 57.710938 -1.488281 50.34375 0.640625 41.875 0.640625 C 34.695312 0.640625 28.21875 -0.988281 22.4375 -4.25 C 16.664062 -7.519531 12.109375 -12.0625 8.765625 -17.875 C 5.429688 -23.6875 3.765625 -30.285156 3.765625 -37.671875 Z M 3.765625 -37.671875 "/></g></g></g><g fill="#050a30" fill-opacity="1"><g transform="translate(78.584873, 112.018258)"><g><path d="M 22.5 -79.65625 L 22.5 0 L 7.421875 0 L 7.421875 -79.65625 Z M 22.5 -79.65625 "/></g></g></g><g fill="#050a30" fill-opacity="1"><g transform="translate(104.200566, 112.018258)"><g><path d="M 62.859375 -31.109375 C 62.859375 -28.953125 62.71875 -27.015625 62.4375 -25.296875 L 18.84375 -25.296875 C 19.195312 -20.992188 20.703125 -17.617188 23.359375 -15.171875 C 26.015625 -12.734375 29.28125 -11.515625 33.15625 -11.515625 C 38.75 -11.515625 42.726562 -13.921875 45.09375 -18.734375 L 61.359375 -18.734375 C 59.628906 -12.992188 56.320312 -8.273438 51.4375 -4.578125 C 46.5625 -0.878906 40.570312 0.96875 33.46875 0.96875 C 27.726562 0.96875 22.578125 -0.300781 18.015625 -2.84375 C 13.460938 -5.394531 9.910156 -9.003906 7.359375 -13.671875 C 4.816406 -18.335938 3.546875 -23.71875 3.546875 -29.8125 C 3.546875 -35.988281 4.800781 -41.40625 7.3125 -46.0625 C 9.832031 -50.726562 13.351562 -54.316406 17.875 -56.828125 C 22.394531 -59.347656 27.59375 -60.609375 33.46875 -60.609375 C 39.144531 -60.609375 44.222656 -59.382812 48.703125 -56.9375 C 53.191406 -54.5 56.671875 -51.035156 59.140625 -46.546875 C 61.617188 -42.066406 62.859375 -36.921875 62.859375 -31.109375 Z M 47.25 -35.40625 C 47.175781 -39.28125 45.773438 -42.382812 43.046875 -44.71875 C 40.328125 -47.050781 36.992188 -48.21875 33.046875 -48.21875 C 29.316406 -48.21875 26.175781 -47.085938 23.625 -44.828125 C 21.082031 -42.566406 19.519531 -39.425781 18.9375 -35.40625 Z M 47.25 -35.40625 "/></g></g></g><g fill="#050a30" fill-opacity="1"><g transform="translate(166.303275, 112.018258)"><g><path d="M 22.5 -50.375 C 24.4375 -53.53125 26.960938 -56.003906 30.078125 -57.796875 C 33.203125 -59.597656 36.773438 -60.5 40.796875 -60.5 L 40.796875 -44.671875 L 36.8125 -44.671875 C 32.070312 -44.671875 28.5 -43.554688 26.09375 -41.328125 C 23.695312 -39.109375 22.5 -35.234375 22.5 -29.703125 L 22.5 0 L 7.421875 0 L 7.421875 -59.640625 L 22.5 -59.640625 Z M 22.5 -50.375 "/></g></g></g><g fill="#050a30" fill-opacity="1"><g transform="translate(205.480512, 112.018258)"><g><path d="M 15.0625 -66.734375 C 12.414062 -66.734375 10.210938 -67.578125 8.453125 -69.265625 C 6.691406 -70.953125 5.8125 -73.050781 5.8125 -75.5625 C 5.8125 -78.070312 6.691406 -80.171875 8.453125 -81.859375 C 10.210938 -83.546875 12.414062 -84.390625 15.0625 -84.390625 C 17.71875 -84.390625 19.925781 -83.546875 21.6875 -81.859375 C 23.445312 -80.171875 24.328125 -78.070312 24.328125 -75.5625 C 24.328125 -73.050781 23.445312 -70.953125 21.6875 -69.265625 C 19.925781 -67.578125 17.71875 -66.734375 15.0625 -66.734375 Z M 22.5 -59.640625 L 22.5 0 L 7.421875 0 L 7.421875 -59.640625 Z M 22.5 -59.640625 "/></g></g></g><g fill="#050a30" fill-opacity="1"><g transform="translate(231.096205, 112.018258)"><g><path d="M 33.90625 0.96875 C 28.164062 0.96875 23 -0.300781 18.40625 -2.84375 C 13.8125 -5.394531 10.203125 -9.003906 7.578125 -13.671875 C 4.960938 -18.335938 3.65625 -23.71875 3.65625 -29.8125 C 3.65625 -35.914062 5 -41.296875 7.6875 -45.953125 C 10.382812 -50.617188 14.0625 -54.226562 18.71875 -56.78125 C 23.382812 -59.332031 28.59375 -60.609375 34.34375 -60.609375 C 40.082031 -60.609375 45.28125 -59.332031 49.9375 -56.78125 C 54.601562 -54.226562 58.28125 -50.617188 60.96875 -45.953125 C 63.664062 -41.296875 65.015625 -35.914062 65.015625 -29.8125 C 65.015625 -23.71875 63.632812 -18.335938 60.875 -13.671875 C 58.113281 -9.003906 54.378906 -5.394531 49.671875 -2.84375 C 44.972656 -0.300781 39.71875 0.96875 33.90625 0.96875 Z M 33.90625 -12.15625 C 36.632812 -12.15625 39.195312 -12.816406 41.59375 -14.140625 C 44 -15.472656 45.921875 -17.46875 47.359375 -20.125 C 48.796875 -22.78125 49.515625 -26.007812 49.515625 -29.8125 C 49.515625 -35.476562 48.023438 -39.835938 45.046875 -42.890625 C 42.066406 -45.941406 38.425781 -47.46875 34.125 -47.46875 C 29.8125 -47.46875 26.203125 -45.941406 23.296875 -42.890625 C 20.390625 -39.835938 18.9375 -35.476562 18.9375 -29.8125 C 18.9375 -24.144531 20.351562 -19.785156 23.1875 -16.734375 C 26.03125 -13.679688 29.601562 -12.15625 33.90625 -12.15625 Z M 33.90625 -12.15625 "/></g></g></g><g fill="#050a30" fill-opacity="1"><g transform="translate(295.459167, 112.018258)"><g><path d="M 40.46875 -60.5 C 47.570312 -60.5 53.3125 -58.253906 57.6875 -53.765625 C 62.070312 -49.273438 64.265625 -43.015625 64.265625 -34.984375 L 64.265625 0 L 49.1875 0 L 49.1875 -32.9375 C 49.1875 -37.675781 48.003906 -41.316406 45.640625 -43.859375 C 43.273438 -46.410156 40.046875 -47.6875 35.953125 -47.6875 C 31.785156 -47.6875 28.5 -46.410156 26.09375 -43.859375 C 23.695312 -41.316406 22.5 -37.675781 22.5 -32.9375 L 22.5 0 L 7.421875 0 L 7.421875 -59.640625 L 22.5 -59.640625 L 22.5 -52.203125 C 24.507812 -54.785156 27.070312 -56.8125 30.1875 -58.28125 C 33.3125 -59.757812 36.738281 -60.5 40.46875 -60.5 Z M 40.46875 -60.5 "/></g></g></g><g fill="#050a30" fill-opacity="1"><g transform="translate(362.297649, 112.018258)"><g><path d="M 24.96875 -47.25 L 24.96875 -18.40625 C 24.96875 -16.394531 25.453125 -14.941406 26.421875 -14.046875 C 27.390625 -13.148438 29.023438 -12.703125 31.328125 -12.703125 L 38.3125 -12.703125 L 38.3125 0 L 28.84375 0 C 16.144531 0 9.796875 -6.171875 9.796875 -18.515625 L 9.796875 -47.25 L 2.6875 -47.25 L 2.6875 -59.640625 L 9.796875 -59.640625 L 9.796875 -74.375 L 24.96875 -74.375 L 24.96875 -59.640625 L 38.3125 -59.640625 L 38.3125 -47.25 Z M 24.96875 -47.25 "/></g></g></g><g fill="#050a30" fill-opacity="1"><g transform="translate(399.75279, 112.018258)"><g><path d="M 3.546875 -30.03125 C 3.546875 -36.0625 4.75 -41.40625 7.15625 -46.0625 C 9.5625 -50.726562 12.828125 -54.316406 16.953125 -56.828125 C 21.078125 -59.347656 25.6875 -60.609375 30.78125 -60.609375 C 35.226562 -60.609375 39.117188 -59.707031 42.453125 -57.90625 C 45.796875 -56.113281 48.472656 -53.851562 50.484375 -51.125 L 50.484375 -59.640625 L 65.65625 -59.640625 L 65.65625 0 L 50.484375 0 L 50.484375 -8.71875 C 48.546875 -5.914062 45.867188 -3.597656 42.453125 -1.765625 C 39.046875 0.0546875 35.117188 0.96875 30.671875 0.96875 C 25.648438 0.96875 21.078125 -0.320312 16.953125 -2.90625 C 12.828125 -5.488281 9.5625 -9.128906 7.15625 -13.828125 C 4.75 -18.523438 3.546875 -23.925781 3.546875 -30.03125 Z M 50.484375 -29.8125 C 50.484375 -33.476562 49.765625 -36.617188 48.328125 -39.234375 C 46.890625 -41.847656 44.953125 -43.851562 42.515625 -45.25 C 40.078125 -46.65625 37.457031 -47.359375 34.65625 -47.359375 C 31.863281 -47.359375 29.28125 -46.675781 26.90625 -45.3125 C 24.539062 -43.945312 22.617188 -41.953125 21.140625 -39.328125 C 19.671875 -36.710938 18.9375 -33.613281 18.9375 -30.03125 C 18.9375 -26.445312 19.671875 -23.304688 21.140625 -20.609375 C 22.617188 -17.921875 24.554688 -15.859375 26.953125 -14.421875 C 29.359375 -12.984375 31.925781 -12.265625 34.65625 -12.265625 C 37.457031 -12.265625 40.078125 -12.960938 42.515625 -14.359375 C 44.953125 -15.765625 46.890625 -17.773438 48.328125 -20.390625 C 49.765625 -23.015625 50.484375 -26.15625 50.484375 -29.8125 Z M 50.484375 -29.8125 "/></g></g></g><g fill="#050a30" fill-opacity="1"><g transform="translate(468.421015, 112.018258)"><g><path d="M 40.359375 0 L 28.09375 -18.515625 L 17.21875 0 L 1.078125 0 L 20.5625 -29.921875 L 0.859375 -59.640625 L 17.875 -59.640625 L 30.03125 -41.21875 L 41.015625 -59.640625 L 57.15625 -59.640625 L 37.5625 -29.921875 L 57.375 0 Z M 40.359375 0 "/></g></g></g></g></g></g><g clip-path="url(#12874000b3)"><g transform="matrix(1, 0, 0, 1, 0, 6)"><g clip-path="url(#0a9d24ccb5)"><g clip-path="url(#6339f2c490)"><path fill="#050a30" d="M 0.558594 0.992188 L 29.558594 0.992188 L 29.558594 60.582031 L 0.558594 60.582031 Z M 0.558594 0.992188 " fill-opacity="1" fill-rule="nonzero"/></g></g></g></g><g clip-path="url(#4a35167221)"><g transform="matrix(1, 0, 0, 1, 0, 6)"><g clip-path="url(#01a6ef148d)"><g clip-path="url(#a0498d3c3f)"><path fill="#050a30" d="M 60.175781 0.992188 L 60.175781 29.996094 L 0.582031 29.996094 L 0.582031 0.992188 Z M 60.175781 0.992188 " fill-opacity="1" fill-rule="nonzero"/></g></g></g></g><g clip-path="url(#50010b6cec)"><g transform="matrix(1, 0, 0, 1, 100, 76)"><g clip-path="url(#5a5db18b59)"><g clip-path="url(#fbf3df055b)"><path fill="#050a30" d="M 29.457031 59.890625 L 0.453125 59.890625 L 0.453125 0.300781 L 29.457031 0.300781 Z M 29.457031 59.890625 " fill-opacity="1" fill-rule="nonzero"/></g></g></g></g><g clip-path="url(#546da63fec)"><g transform="matrix(1, 0, 0, 1, 69, 106)"><g clip-path="url(#0e93511e79)"><g clip-path="url(#2b7f8ede97)"><path fill="#050a30" d="M 0.839844 29.890625 L 0.839844 0.890625 L 60.433594 0.890625 L 60.433594 29.890625 Z M 0.839844 29.890625 " fill-opacity="1" fill-rule="nonzero"/></g></g></g></g><g clip-path="url(#14d391c51a)"><g clip-path="url(#2070e1c93e)"><g transform="matrix(1, 0, 0, 1, 0, 77)"><g clip-path="url(#6aa3949766)"><g clip-path="url(#90e2d4b950)"><g clip-path="url(#1e511cd527)"><path fill="#050a30" d="M 58.5625 0.886719 L 58.5625 58.890625 L 0.558594 58.890625 L 0.558594 0.886719 Z M 58.5625 0.886719 " fill-opacity="1" fill-rule="nonzero"/></g></g></g></g></g></g><g clip-path="url(#7bd18349f6)"><g clip-path="url(#10e22279d4)"><g transform="matrix(1, 0, 0, 1, 71, 6)"><g clip-path="url(#1f3156d7dd)"><g clip-path="url(#5d57421276)"><g clip-path="url(#9a08f2d9db)"><path fill="#dc2618" d="M 0.453125 58.996094 L 0.453125 0.992188 L 58.457031 0.992188 L 58.457031 58.996094 Z M 0.453125 58.996094 " fill-opacity="1" fill-rule="nonzero"/></g></g></g></g></g></g></g></g></svg>