<svg xmlns="http://www.w3.org/2000/svg" xmlns:xlink="http://www.w3.org/1999/xlink" width="1000" zoomAndPan="magnify" viewBox="0 0 750 225" height="300" preserveAspectRatio="xMidYMid meet" version="1.0"><defs><g/><clipPath id="6690a0e911"><path d="M 143 0.0390625 L 656.878906 0.0390625 L 656.878906 146.199219 L 143 146.199219 Z M 143 0.0390625 " clip-rule="nonzero"/></clipPath><clipPath id="7cc48234aa"><rect x="0" width="514" y="0" height="147"/></clipPath><clipPath id="34a8cae293"><path d="M 0.902344 7.335938 L 29.324219 7.335938 L 29.324219 65.761719 L 0.902344 65.761719 Z M 0.902344 7.335938 " clip-rule="nonzero"/></clipPath><clipPath id="caf0a0f985"><path d="M 0.902344 0.335938 L 29.324219 0.335938 L 29.324219 58.761719 L 0.902344 58.761719 Z M 0.902344 0.335938 " clip-rule="nonzero"/></clipPath><clipPath id="daac7e6b09"><rect x="0" width="30" y="0" height="59"/></clipPath><clipPath id="06ec2e69fc"><path d="M 0.898438 7.335938 L 59.328125 7.335938 L 59.328125 35.761719 L 0.898438 35.761719 Z M 0.898438 7.335938 " clip-rule="nonzero"/></clipPath><clipPath id="a7fbcb92d8"><path d="M 0.898438 0.335938 L 59.328125 0.335938 L 59.328125 28.761719 L 0.898438 28.761719 Z M 0.898438 0.335938 " clip-rule="nonzero"/></clipPath><clipPath id="4c10548838"><rect x="0" width="60" y="0" height="29"/></clipPath><clipPath id="893b38dfe6"><path d="M 98.804688 75.238281 L 127.226562 75.238281 L 127.226562 133.664062 L 98.804688 133.664062 Z M 98.804688 75.238281 " clip-rule="nonzero"/></clipPath><clipPath id="2cf07415bc"><path d="M 0.804688 0.238281 L 29.226562 0.238281 L 29.226562 58.664062 L 0.804688 58.664062 Z M 0.804688 0.238281 " clip-rule="nonzero"/></clipPath><clipPath id="fdf52d2059"><rect x="0" width="30" y="0" height="59"/></clipPath><clipPath id="3458d47966"><path d="M 68.800781 105.238281 L 127.226562 105.238281 L 127.226562 133.664062 L 68.800781 133.664062 Z M 68.800781 105.238281 " clip-rule="nonzero"/></clipPath><clipPath id="3e992131f7"><path d="M 0.800781 0.238281 L 59.226562 0.238281 L 59.226562 28.664062 L 0.800781 28.664062 Z M 0.800781 0.238281 " clip-rule="nonzero"/></clipPath><clipPath id="f71414f6c8"><rect x="0" width="60" y="0" height="29"/></clipPath><clipPath id="3f1b90755b"><path d="M 0.898438 76.816406 L 57.746094 76.816406 L 57.746094 133.664062 L 0.898438 133.664062 Z M 0.898438 76.816406 " clip-rule="nonzero"/></clipPath><clipPath id="a96f374ffc"><path d="M 0.898438 76.816406 C 15.867188 76.816406 30.507812 82.878906 41.09375 93.464844 C 51.679688 104.054688 57.746094 118.691406 57.746094 133.664062 L 28.742188 133.664062 C 28.742188 126.332031 25.773438 119.160156 20.585938 113.972656 C 15.402344 108.789062 8.230469 105.816406 0.898438 105.816406 Z M 0.898438 76.816406 " clip-rule="nonzero"/></clipPath><clipPath id="2b427c8bfb"><path d="M 0.898438 0.816406 L 57.746094 0.816406 L 57.746094 57.664062 L 0.898438 57.664062 Z M 0.898438 0.816406 " clip-rule="nonzero"/></clipPath><clipPath id="2b500614d3"><path d="M 0.898438 0.816406 C 15.867188 0.816406 30.507812 6.878906 41.09375 17.464844 C 51.679688 28.054688 57.746094 42.691406 57.746094 57.664062 L 28.742188 57.664062 C 28.742188 50.332031 25.773438 43.160156 20.585938 37.972656 C 15.402344 32.789062 8.230469 29.816406 0.898438 29.816406 Z M 0.898438 0.816406 " clip-rule="nonzero"/></clipPath><clipPath id="aa87f9df3e"><rect x="0" width="58" y="0" height="58"/></clipPath><clipPath id="305002e291"><path d="M 70.160156 7.332031 L 127.230469 7.332031 L 127.230469 64.179688 L 70.160156 64.179688 Z M 70.160156 7.332031 " clip-rule="nonzero"/></clipPath><clipPath id="6a65b32b7e"><path d="M 127.230469 64.179688 C 112.257812 64.179688 97.617188 58.117188 87.03125 47.527344 C 76.445312 36.941406 70.382812 22.304688 70.382812 7.332031 L 127.230469 7.332031 Z M 127.230469 64.179688 " clip-rule="nonzero"/></clipPath><clipPath id="16ad854935"><path d="M 0.320312 0.332031 L 57.230469 0.332031 L 57.230469 57.179688 L 0.320312 57.179688 Z M 0.320312 0.332031 " clip-rule="nonzero"/></clipPath><clipPath id="9527dd3a47"><path d="M 57.230469 57.179688 C 42.257812 57.179688 27.617188 51.117188 17.03125 40.527344 C 6.445312 29.941406 0.382812 15.304688 0.382812 0.332031 L 57.230469 0.332031 Z M 57.230469 57.179688 " clip-rule="nonzero"/></clipPath><clipPath id="c95d520c88"><rect x="0" width="58" y="0" height="58"/></clipPath><clipPath id="f270f83edb"><rect x="0" width="657" y="0" height="147"/></clipPath></defs><g transform="matrix(1, 0, 0, 1, 48, 41)"><g clip-path="url(#f270f83edb)"><g clip-path="url(#6690a0e911)"><g transform="matrix(1, 0, 0, 1, 143, -0.000000000000007105)"><g clip-path="url(#7cc48234aa)"><g fill="#ffffff" fill-opacity="1"><g transform="translate(0.383479, 108.44941)"><g><path d="M 3.65625 -36.625 C 3.65625 -43.8125 5.273438 -50.25 8.515625 -55.9375 C 11.765625 -61.625 16.195312 -66.050781 21.8125 -69.21875 C 27.4375 -72.394531 33.738281 -73.984375 40.71875 -73.984375 C 48.875 -73.984375 56.019531 -71.890625 62.15625 -67.703125 C 68.300781 -63.523438 72.59375 -57.738281 75.03125 -50.34375 L 58.1875 -50.34375 C 56.507812 -53.832031 54.15625 -56.445312 51.125 -58.1875 C 48.09375 -59.9375 44.585938 -60.8125 40.609375 -60.8125 C 36.347656 -60.8125 32.5625 -59.816406 29.25 -57.828125 C 25.9375 -55.835938 23.351562 -53.023438 21.5 -49.390625 C 19.65625 -45.765625 18.734375 -41.507812 18.734375 -36.625 C 18.734375 -31.8125 19.65625 -27.570312 21.5 -23.90625 C 23.351562 -20.25 25.9375 -17.425781 29.25 -15.4375 C 32.5625 -13.445312 36.347656 -12.453125 40.609375 -12.453125 C 44.585938 -12.453125 48.09375 -13.34375 51.125 -15.125 C 54.15625 -16.90625 56.507812 -19.539062 58.1875 -23.03125 L 75.03125 -23.03125 C 72.59375 -15.5625 68.320312 -9.75 62.21875 -5.59375 C 56.113281 -1.445312 48.945312 0.625 40.71875 0.625 C 33.738281 0.625 27.4375 -0.957031 21.8125 -4.125 C 16.195312 -7.300781 11.765625 -11.710938 8.515625 -17.359375 C 5.273438 -23.015625 3.65625 -29.4375 3.65625 -36.625 Z M 3.65625 -36.625 "/></g></g></g><g fill="#ffffff" fill-opacity="1"><g transform="translate(76.571689, 108.44941)"><g><path d="M 21.875 -77.453125 L 21.875 0 L 7.21875 0 L 7.21875 -77.453125 Z M 21.875 -77.453125 "/></g></g></g><g fill="#ffffff" fill-opacity="1"><g transform="translate(101.479006, 108.44941)"><g><path d="M 61.125 -30.25 C 61.125 -28.15625 60.984375 -26.269531 60.703125 -24.59375 L 18.3125 -24.59375 C 18.664062 -20.40625 20.128906 -17.125 22.703125 -14.75 C 25.285156 -12.382812 28.460938 -11.203125 32.234375 -11.203125 C 37.671875 -11.203125 41.539062 -13.535156 43.84375 -18.203125 L 59.65625 -18.203125 C 57.976562 -12.628906 54.765625 -8.046875 50.015625 -4.453125 C 45.273438 -0.859375 39.453125 0.9375 32.546875 0.9375 C 26.960938 0.9375 21.957031 -0.296875 17.53125 -2.765625 C 13.101562 -5.242188 9.648438 -8.75 7.171875 -13.28125 C 4.691406 -17.820312 3.453125 -23.054688 3.453125 -28.984375 C 3.453125 -34.984375 4.671875 -40.25 7.109375 -44.78125 C 9.554688 -49.320312 12.976562 -52.8125 17.375 -55.25 C 21.769531 -57.695312 26.828125 -58.921875 32.546875 -58.921875 C 38.054688 -58.921875 42.988281 -57.734375 47.34375 -55.359375 C 51.707031 -52.992188 55.09375 -49.628906 57.5 -45.265625 C 59.914062 -40.898438 61.125 -35.894531 61.125 -30.25 Z M 45.9375 -34.4375 C 45.875 -38.195312 44.515625 -41.210938 41.859375 -43.484375 C 39.210938 -45.753906 35.96875 -46.890625 32.125 -46.890625 C 28.5 -46.890625 25.445312 -45.789062 22.96875 -43.59375 C 20.488281 -41.394531 18.972656 -38.34375 18.421875 -34.4375 Z M 45.9375 -34.4375 "/></g></g></g><g fill="#ffffff" fill-opacity="1"><g transform="translate(161.864326, 108.44941)"><g><path d="M 21.875 -48.984375 C 23.757812 -52.046875 26.21875 -54.445312 29.25 -56.1875 C 32.28125 -57.9375 35.753906 -58.8125 39.671875 -58.8125 L 39.671875 -43.4375 L 35.796875 -43.4375 C 31.191406 -43.4375 27.71875 -42.351562 25.375 -40.1875 C 23.039062 -38.019531 21.875 -34.253906 21.875 -28.890625 L 21.875 0 L 7.21875 0 L 7.21875 -57.984375 L 21.875 -57.984375 Z M 21.875 -48.984375 "/></g></g></g><g fill="#ffffff" fill-opacity="1"><g transform="translate(199.958155, 108.44941)"><g><path d="M 14.65625 -64.890625 C 12.070312 -64.890625 9.925781 -65.707031 8.21875 -67.34375 C 6.507812 -68.988281 5.65625 -71.03125 5.65625 -73.46875 C 5.65625 -75.90625 6.507812 -77.941406 8.21875 -79.578125 C 9.925781 -81.222656 12.070312 -82.046875 14.65625 -82.046875 C 17.238281 -82.046875 19.382812 -81.222656 21.09375 -79.578125 C 22.800781 -77.941406 23.65625 -75.90625 23.65625 -73.46875 C 23.65625 -71.03125 22.800781 -68.988281 21.09375 -67.34375 C 19.382812 -65.707031 17.238281 -64.890625 14.65625 -64.890625 Z M 21.875 -57.984375 L 21.875 0 L 7.21875 0 L 7.21875 -57.984375 Z M 21.875 -57.984375 "/></g></g></g><g fill="#ffffff" fill-opacity="1"><g transform="translate(224.865472, 108.44941)"><g><path d="M 32.96875 0.9375 C 27.382812 0.9375 22.359375 -0.296875 17.890625 -2.765625 C 13.429688 -5.242188 9.925781 -8.75 7.375 -13.28125 C 4.832031 -17.820312 3.5625 -23.054688 3.5625 -28.984375 C 3.5625 -34.921875 4.867188 -40.15625 7.484375 -44.6875 C 10.097656 -49.21875 13.671875 -52.722656 18.203125 -55.203125 C 22.742188 -57.679688 27.804688 -58.921875 33.390625 -58.921875 C 38.972656 -58.921875 44.03125 -57.679688 48.5625 -55.203125 C 53.09375 -52.722656 56.664062 -49.21875 59.28125 -44.6875 C 61.90625 -40.15625 63.21875 -34.921875 63.21875 -28.984375 C 63.21875 -23.054688 61.875 -17.820312 59.1875 -13.28125 C 56.5 -8.75 52.867188 -5.242188 48.296875 -2.765625 C 43.722656 -0.296875 38.613281 0.9375 32.96875 0.9375 Z M 32.96875 -11.828125 C 35.613281 -11.828125 38.101562 -12.472656 40.4375 -13.765625 C 42.78125 -15.054688 44.648438 -16.988281 46.046875 -19.5625 C 47.441406 -22.144531 48.140625 -25.285156 48.140625 -28.984375 C 48.140625 -34.492188 46.691406 -38.734375 43.796875 -41.703125 C 40.898438 -44.671875 37.359375 -46.15625 33.171875 -46.15625 C 28.984375 -46.15625 25.476562 -44.671875 22.65625 -41.703125 C 19.832031 -38.734375 18.421875 -34.492188 18.421875 -28.984375 C 18.421875 -23.472656 19.796875 -19.234375 22.546875 -16.265625 C 25.304688 -13.304688 28.78125 -11.828125 32.96875 -11.828125 Z M 32.96875 -11.828125 "/></g></g></g><g fill="#ffffff" fill-opacity="1"><g transform="translate(287.448539, 108.44941)"><g><path d="M 39.34375 -58.8125 C 46.257812 -58.8125 51.84375 -56.628906 56.09375 -52.265625 C 60.351562 -47.910156 62.484375 -41.828125 62.484375 -34.015625 L 62.484375 0 L 47.828125 0 L 47.828125 -32.03125 C 47.828125 -36.632812 46.675781 -40.171875 44.375 -42.640625 C 42.070312 -45.117188 38.929688 -46.359375 34.953125 -46.359375 C 30.910156 -46.359375 27.71875 -45.117188 25.375 -42.640625 C 23.039062 -40.171875 21.875 -36.632812 21.875 -32.03125 L 21.875 0 L 7.21875 0 L 7.21875 -57.984375 L 21.875 -57.984375 L 21.875 -50.765625 C 23.820312 -53.273438 26.3125 -55.242188 29.34375 -56.671875 C 32.382812 -58.097656 35.71875 -58.8125 39.34375 -58.8125 Z M 39.34375 -58.8125 "/></g></g></g><g fill="#ffffff" fill-opacity="1"><g transform="translate(352.438669, 108.44941)"><g><path d="M 24.28125 -45.9375 L 24.28125 -17.890625 C 24.28125 -15.941406 24.75 -14.53125 25.6875 -13.65625 C 26.632812 -12.78125 28.222656 -12.34375 30.453125 -12.34375 L 37.25 -12.34375 L 37.25 0 L 28.046875 0 C 15.703125 0 9.53125 -6 9.53125 -18 L 9.53125 -45.9375 L 2.609375 -45.9375 L 2.609375 -57.984375 L 9.53125 -57.984375 L 9.53125 -72.3125 L 24.28125 -72.3125 L 24.28125 -57.984375 L 37.25 -57.984375 L 37.25 -45.9375 Z M 24.28125 -45.9375 "/></g></g></g><g fill="#ffffff" fill-opacity="1"><g transform="translate(388.858025, 108.44941)"><g><path d="M 3.453125 -29.203125 C 3.453125 -35.054688 4.617188 -40.25 6.953125 -44.78125 C 9.296875 -49.320312 12.472656 -52.8125 16.484375 -55.25 C 20.492188 -57.695312 24.976562 -58.921875 29.9375 -58.921875 C 34.257812 -58.921875 38.039062 -58.046875 41.28125 -56.296875 C 44.53125 -54.554688 47.128906 -52.363281 49.078125 -49.71875 L 49.078125 -57.984375 L 63.84375 -57.984375 L 63.84375 0 L 49.078125 0 L 49.078125 -8.484375 C 47.203125 -5.753906 44.601562 -3.5 41.28125 -1.71875 C 37.96875 0.0507812 34.148438 0.9375 29.828125 0.9375 C 24.941406 0.9375 20.492188 -0.316406 16.484375 -2.828125 C 12.472656 -5.335938 9.296875 -8.875 6.953125 -13.4375 C 4.617188 -18.007812 3.453125 -23.265625 3.453125 -29.203125 Z M 49.078125 -28.984375 C 49.078125 -32.546875 48.378906 -35.597656 46.984375 -38.140625 C 45.585938 -40.691406 43.703125 -42.644531 41.328125 -44 C 38.960938 -45.363281 36.421875 -46.046875 33.703125 -46.046875 C 30.984375 -46.046875 28.46875 -45.382812 26.15625 -44.0625 C 23.851562 -42.738281 21.988281 -40.800781 20.5625 -38.25 C 19.132812 -35.707031 18.421875 -32.691406 18.421875 -29.203125 C 18.421875 -25.710938 19.132812 -22.65625 20.5625 -20.03125 C 21.988281 -17.414062 23.867188 -15.410156 26.203125 -14.015625 C 28.546875 -12.628906 31.046875 -11.9375 33.703125 -11.9375 C 36.421875 -11.9375 38.960938 -12.613281 41.328125 -13.96875 C 43.703125 -15.332031 45.585938 -17.285156 46.984375 -19.828125 C 48.378906 -22.378906 49.078125 -25.429688 49.078125 -28.984375 Z M 49.078125 -28.984375 "/></g></g></g><g fill="#ffffff" fill-opacity="1"><g transform="translate(455.627298, 108.44941)"><g><path d="M 39.25 0 L 27.3125 -18 L 16.75 0 L 1.046875 0 L 19.984375 -29.09375 L 0.84375 -57.984375 L 17.375 -57.984375 L 29.203125 -40.078125 L 39.875 -57.984375 L 55.578125 -57.984375 L 36.53125 -29.09375 L 55.78125 0 Z M 39.25 0 "/></g></g></g></g></g></g><g clip-path="url(#34a8cae293)"><g transform="matrix(1, 0, 0, 1, 0, 7)"><g clip-path="url(#daac7e6b09)"><g clip-path="url(#caf0a0f985)"><path fill="#ffffff" d="M 0.902344 0.335938 L 29.324219 0.335938 L 29.324219 58.738281 L 0.902344 58.738281 Z M 0.902344 0.335938 " fill-opacity="1" fill-rule="nonzero"/></g></g></g></g><g clip-path="url(#06ec2e69fc)"><g transform="matrix(1, 0, 0, 1, 0, 7)"><g clip-path="url(#4c10548838)"><g clip-path="url(#a7fbcb92d8)"><path fill="#ffffff" d="M 59.328125 0.335938 L 59.328125 28.761719 L 0.925781 28.761719 L 0.925781 0.335938 Z M 59.328125 0.335938 " fill-opacity="1" fill-rule="nonzero"/></g></g></g></g><g clip-path="url(#893b38dfe6)"><g transform="matrix(1, 0, 0, 1, 98, 75)"><g clip-path="url(#fdf52d2059)"><g clip-path="url(#2cf07415bc)"><path fill="#ffffff" d="M 29.226562 58.664062 L 0.804688 58.664062 L 0.804688 0.261719 L 29.226562 0.261719 Z M 29.226562 58.664062 " fill-opacity="1" fill-rule="nonzero"/></g></g></g></g><g clip-path="url(#3458d47966)"><g transform="matrix(1, 0, 0, 1, 68, 105)"><g clip-path="url(#f71414f6c8)"><g clip-path="url(#3e992131f7)"><path fill="#ffffff" d="M 0.800781 28.664062 L 0.800781 0.238281 L 59.203125 0.238281 L 59.203125 28.664062 Z M 0.800781 28.664062 " fill-opacity="1" fill-rule="nonzero"/></g></g></g></g><g clip-path="url(#3f1b90755b)"><g clip-path="url(#a96f374ffc)"><g transform="matrix(1, 0, 0, 1, 0, 76)"><g clip-path="url(#aa87f9df3e)"><g clip-path="url(#2b427c8bfb)"><g clip-path="url(#2b500614d3)"><path fill="#ffffff" d="M 57.746094 0.816406 L 57.746094 57.664062 L 0.898438 57.664062 L 0.898438 0.816406 Z M 57.746094 0.816406 " fill-opacity="1" fill-rule="nonzero"/></g></g></g></g></g></g><g clip-path="url(#305002e291)"><g clip-path="url(#6a65b32b7e)"><g transform="matrix(1, 0, 0, 1, 70, 7)"><g clip-path="url(#c95d520c88)"><g clip-path="url(#16ad854935)"><g clip-path="url(#9527dd3a47)"><path fill="#dc2618" d="M 0.382812 57.179688 L 0.382812 0.332031 L 57.230469 0.332031 L 57.230469 57.179688 Z M 0.382812 57.179688 " fill-opacity="1" fill-rule="nonzero"/></g></g></g></g></g></g></g></g></svg>