<svg xmlns="http://www.w3.org/2000/svg" xmlns:xlink="http://www.w3.org/1999/xlink" width="500" zoomAndPan="magnify" viewBox="0 0 375 374.999991" height="500" preserveAspectRatio="xMidYMid meet" version="1.0"><defs><g/><clipPath id="d41f2c71e4"><path d="M 68 0.601562 L 314.121094 0.601562 L 314.121094 70.441406 L 68 70.441406 Z M 68 0.601562 " clip-rule="nonzero"/></clipPath><clipPath id="c2b00eb799"><rect x="0" width="247" y="0" height="71"/></clipPath><clipPath id="3170ccdf39"><path d="M 0.695312 3.609375 L 14.164062 3.609375 L 14.164062 31.300781 L 0.695312 31.300781 Z M 0.695312 3.609375 " clip-rule="nonzero"/></clipPath><clipPath id="d8e2c437a6"><path d="M 0.695312 0.609375 L 14.164062 0.609375 L 14.164062 28.300781 L 0.695312 28.300781 Z M 0.695312 0.609375 " clip-rule="nonzero"/></clipPath><clipPath id="c6aa64dabf"><rect x="0" width="15" y="0" height="29"/></clipPath><clipPath id="ab1337bc04"><path d="M 0.695312 3.609375 L 28.386719 3.609375 L 28.386719 17.078125 L 0.695312 17.078125 Z M 0.695312 3.609375 " clip-rule="nonzero"/></clipPath><clipPath id="e42b09892c"><path d="M 0.695312 0.609375 L 28.386719 0.609375 L 28.386719 14.078125 L 0.695312 14.078125 Z M 0.695312 0.609375 " clip-rule="nonzero"/></clipPath><clipPath id="3f22621b2d"><rect x="0" width="29" y="0" height="15"/></clipPath><clipPath id="9ef581c6de"><path d="M 47.09375 35.789062 L 60.566406 35.789062 L 60.566406 63.480469 L 47.09375 63.480469 Z M 47.09375 35.789062 " clip-rule="nonzero"/></clipPath><clipPath id="602ff545d5"><path d="M 0.09375 0.789062 L 13.566406 0.789062 L 13.566406 28.480469 L 0.09375 28.480469 Z M 0.09375 0.789062 " clip-rule="nonzero"/></clipPath><clipPath id="23ac1926a7"><rect x="0" width="14" y="0" height="29"/></clipPath><clipPath id="c7fd2e5cb6"><path d="M 32.875 50.007812 L 60.566406 50.007812 L 60.566406 63.480469 L 32.875 63.480469 Z M 32.875 50.007812 " clip-rule="nonzero"/></clipPath><clipPath id="cf23509235"><path d="M 0.875 0.0078125 L 28.566406 0.0078125 L 28.566406 13.480469 L 0.875 13.480469 Z M 0.875 0.0078125 " clip-rule="nonzero"/></clipPath><clipPath id="b11f248456"><rect x="0" width="29" y="0" height="14"/></clipPath><clipPath id="53429f8878"><path d="M 0.695312 36.539062 L 27.636719 36.539062 L 27.636719 63.480469 L 0.695312 63.480469 Z M 0.695312 36.539062 " clip-rule="nonzero"/></clipPath><clipPath id="40fa99efe2"><path d="M 0.695312 36.539062 C 7.789062 36.539062 14.730469 39.410156 19.746094 44.429688 C 24.761719 49.445312 27.636719 56.382812 27.636719 63.480469 L 13.890625 63.480469 C 13.890625 60.003906 12.484375 56.605469 10.027344 54.148438 C 7.570312 51.691406 4.171875 50.28125 0.695312 50.28125 Z M 0.695312 36.539062 " clip-rule="nonzero"/></clipPath><clipPath id="0857bbce66"><path d="M 0.695312 0.539062 L 27.636719 0.539062 L 27.636719 27.480469 L 0.695312 27.480469 Z M 0.695312 0.539062 " clip-rule="nonzero"/></clipPath><clipPath id="213091acb6"><path d="M 0.695312 0.539062 C 7.789062 0.539062 14.730469 3.410156 19.746094 8.429688 C 24.761719 13.445312 27.636719 20.382812 27.636719 27.480469 L 13.890625 27.480469 C 13.890625 24.003906 12.484375 20.605469 10.027344 18.148438 C 7.570312 15.691406 4.171875 14.28125 0.695312 14.28125 Z M 0.695312 0.539062 " clip-rule="nonzero"/></clipPath><clipPath id="d861172525"><rect x="0" width="28" y="0" height="28"/></clipPath><clipPath id="dba8ec55cb"><path d="M 33.519531 3.609375 L 60.566406 3.609375 L 60.566406 30.550781 L 33.519531 30.550781 Z M 33.519531 3.609375 " clip-rule="nonzero"/></clipPath><clipPath id="fad537033e"><path d="M 60.566406 30.550781 C 53.46875 30.550781 46.53125 27.675781 41.515625 22.660156 C 36.496094 17.644531 33.625 10.703125 33.625 3.609375 L 60.566406 3.609375 Z M 60.566406 30.550781 " clip-rule="nonzero"/></clipPath><clipPath id="3866a6c30a"><path d="M 0.558594 0.609375 L 27.566406 0.609375 L 27.566406 27.550781 L 0.558594 27.550781 Z M 0.558594 0.609375 " clip-rule="nonzero"/></clipPath><clipPath id="b7047bcbe3"><path d="M 27.566406 27.550781 C 20.46875 27.550781 13.53125 24.675781 8.515625 19.660156 C 3.496094 14.644531 0.625 7.703125 0.625 0.609375 L 27.566406 0.609375 Z M 27.566406 27.550781 " clip-rule="nonzero"/></clipPath><clipPath id="3b359b02e5"><rect x="0" width="28" y="0" height="28"/></clipPath><clipPath id="7bbc3dd933"><rect x="0" width="315" y="0" height="71"/></clipPath></defs><g transform="matrix(1, 0, 0, 1, 31, 153)"><g clip-path="url(#7bbc3dd933)"><g clip-path="url(#d41f2c71e4)"><g transform="matrix(1, 0, 0, 1, 68, 0)"><g clip-path="url(#c2b00eb799)"><g fill="#050a30" fill-opacity="1"><g transform="translate(0.820633, 52.390841)"><g><path d="M 1.75 -17.5 C 1.75 -20.9375 2.523438 -24.007812 4.078125 -26.71875 C 5.628906 -29.4375 7.742188 -31.550781 10.421875 -33.0625 C 13.109375 -34.582031 16.117188 -35.34375 19.453125 -35.34375 C 23.347656 -35.34375 26.757812 -34.34375 29.6875 -32.34375 C 32.625 -30.34375 34.675781 -27.578125 35.84375 -24.046875 L 27.796875 -24.046875 C 26.992188 -25.710938 25.867188 -26.960938 24.421875 -27.796875 C 22.972656 -28.628906 21.300781 -29.046875 19.40625 -29.046875 C 17.363281 -29.046875 15.550781 -28.570312 13.96875 -27.625 C 12.382812 -26.675781 11.148438 -25.332031 10.265625 -23.59375 C 9.390625 -21.863281 8.953125 -19.832031 8.953125 -17.5 C 8.953125 -15.195312 9.390625 -13.171875 10.265625 -11.421875 C 11.148438 -9.671875 12.382812 -8.320312 13.96875 -7.375 C 15.550781 -6.425781 17.363281 -5.953125 19.40625 -5.953125 C 21.300781 -5.953125 22.972656 -6.375 24.421875 -7.21875 C 25.867188 -8.070312 26.992188 -9.332031 27.796875 -11 L 35.84375 -11 C 34.675781 -7.4375 32.632812 -4.660156 29.71875 -2.671875 C 26.800781 -0.691406 23.378906 0.296875 19.453125 0.296875 C 16.117188 0.296875 13.109375 -0.457031 10.421875 -1.96875 C 7.742188 -3.488281 5.628906 -5.597656 4.078125 -8.296875 C 2.523438 -10.992188 1.75 -14.0625 1.75 -17.5 Z M 1.75 -17.5 "/></g></g></g><g fill="#050a30" fill-opacity="1"><g transform="translate(37.214731, 52.390841)"><g><path d="M 10.453125 -37 L 10.453125 0 L 3.453125 0 L 3.453125 -37 Z M 10.453125 -37 "/></g></g></g><g fill="#050a30" fill-opacity="1"><g transform="translate(49.112626, 52.390841)"><g><path d="M 29.203125 -14.453125 C 29.203125 -13.453125 29.132812 -12.550781 29 -11.75 L 8.75 -11.75 C 8.914062 -9.75 9.613281 -8.179688 10.84375 -7.046875 C 12.082031 -5.910156 13.601562 -5.34375 15.40625 -5.34375 C 18 -5.34375 19.847656 -6.460938 20.953125 -8.703125 L 28.5 -8.703125 C 27.695312 -6.035156 26.160156 -3.84375 23.890625 -2.125 C 21.628906 -0.40625 18.847656 0.453125 15.546875 0.453125 C 12.878906 0.453125 10.488281 -0.132812 8.375 -1.3125 C 6.257812 -2.5 4.609375 -4.175781 3.421875 -6.34375 C 2.242188 -8.507812 1.65625 -11.007812 1.65625 -13.84375 C 1.65625 -16.71875 2.238281 -19.238281 3.40625 -21.40625 C 4.570312 -23.570312 6.203125 -25.238281 8.296875 -26.40625 C 10.398438 -27.570312 12.816406 -28.15625 15.546875 -28.15625 C 18.179688 -28.15625 20.539062 -27.585938 22.625 -26.453125 C 24.707031 -25.316406 26.320312 -23.707031 27.46875 -21.625 C 28.625 -19.539062 29.203125 -17.148438 29.203125 -14.453125 Z M 21.953125 -16.453125 C 21.921875 -18.253906 21.269531 -19.695312 20 -20.78125 C 18.726562 -21.863281 17.175781 -22.40625 15.34375 -22.40625 C 13.613281 -22.40625 12.15625 -21.878906 10.96875 -20.828125 C 9.789062 -19.773438 9.066406 -18.316406 8.796875 -16.453125 Z M 21.953125 -16.453125 "/></g></g></g><g fill="#050a30" fill-opacity="1"><g transform="translate(77.957892, 52.390841)"><g><path d="M 10.453125 -23.40625 C 11.347656 -24.863281 12.519531 -26.007812 13.96875 -26.84375 C 15.425781 -27.675781 17.085938 -28.09375 18.953125 -28.09375 L 18.953125 -20.75 L 17.09375 -20.75 C 14.894531 -20.75 13.238281 -20.234375 12.125 -19.203125 C 11.007812 -18.171875 10.453125 -16.367188 10.453125 -13.796875 L 10.453125 0 L 3.453125 0 L 3.453125 -27.703125 L 10.453125 -27.703125 Z M 10.453125 -23.40625 "/></g></g></g><g fill="#050a30" fill-opacity="1"><g transform="translate(96.15481, 52.390841)"><g><path d="M 7 -31 C 5.769531 -31 4.742188 -31.390625 3.921875 -32.171875 C 3.109375 -32.953125 2.703125 -33.925781 2.703125 -35.09375 C 2.703125 -36.257812 3.109375 -37.234375 3.921875 -38.015625 C 4.742188 -38.804688 5.769531 -39.203125 7 -39.203125 C 8.226562 -39.203125 9.25 -38.804688 10.0625 -38.015625 C 10.882812 -37.234375 11.296875 -36.257812 11.296875 -35.09375 C 11.296875 -33.925781 10.882812 -32.953125 10.0625 -32.171875 C 9.25 -31.390625 8.226562 -31 7 -31 Z M 10.453125 -27.703125 L 10.453125 0 L 3.453125 0 L 3.453125 -27.703125 Z M 10.453125 -27.703125 "/></g></g></g><g fill="#050a30" fill-opacity="1"><g transform="translate(108.052705, 52.390841)"><g><path d="M 15.75 0.453125 C 13.082031 0.453125 10.679688 -0.132812 8.546875 -1.3125 C 6.410156 -2.5 4.734375 -4.175781 3.515625 -6.34375 C 2.304688 -8.507812 1.703125 -11.007812 1.703125 -13.84375 C 1.703125 -16.675781 2.328125 -19.175781 3.578125 -21.34375 C 4.828125 -23.507812 6.535156 -25.1875 8.703125 -26.375 C 10.867188 -27.5625 13.285156 -28.15625 15.953125 -28.15625 C 18.617188 -28.15625 21.035156 -27.5625 23.203125 -26.375 C 25.367188 -25.1875 27.078125 -23.507812 28.328125 -21.34375 C 29.578125 -19.175781 30.203125 -16.675781 30.203125 -13.84375 C 30.203125 -11.007812 29.554688 -8.507812 28.265625 -6.34375 C 26.984375 -4.175781 25.25 -2.5 23.0625 -1.3125 C 20.882812 -0.132812 18.445312 0.453125 15.75 0.453125 Z M 15.75 -5.65625 C 17.019531 -5.65625 18.210938 -5.960938 19.328125 -6.578125 C 20.441406 -7.191406 21.332031 -8.113281 22 -9.34375 C 22.664062 -10.582031 23 -12.082031 23 -13.84375 C 23 -16.476562 22.304688 -18.503906 20.921875 -19.921875 C 19.535156 -21.335938 17.84375 -22.046875 15.84375 -22.046875 C 13.84375 -22.046875 12.164062 -21.335938 10.8125 -19.921875 C 9.46875 -18.503906 8.796875 -16.476562 8.796875 -13.84375 C 8.796875 -11.21875 9.453125 -9.195312 10.765625 -7.78125 C 12.085938 -6.363281 13.75 -5.65625 15.75 -5.65625 Z M 15.75 -5.65625 "/></g></g></g><g fill="#050a30" fill-opacity="1"><g transform="translate(137.947806, 52.390841)"><g><path d="M 18.796875 -28.09375 C 22.097656 -28.09375 24.765625 -27.050781 26.796875 -24.96875 C 28.828125 -22.882812 29.84375 -19.976562 29.84375 -16.25 L 29.84375 0 L 22.84375 0 L 22.84375 -15.296875 C 22.84375 -17.492188 22.289062 -19.1875 21.1875 -20.375 C 20.09375 -21.5625 18.597656 -22.15625 16.703125 -22.15625 C 14.765625 -22.15625 13.238281 -21.5625 12.125 -20.375 C 11.007812 -19.1875 10.453125 -17.492188 10.453125 -15.296875 L 10.453125 0 L 3.453125 0 L 3.453125 -27.703125 L 10.453125 -27.703125 L 10.453125 -24.25 C 11.378906 -25.445312 12.566406 -26.382812 14.015625 -27.0625 C 15.472656 -27.75 17.066406 -28.09375 18.796875 -28.09375 Z M 18.796875 -28.09375 "/></g></g></g><g fill="#050a30" fill-opacity="1"><g transform="translate(168.99273, 52.390841)"><g><path d="M 11.59375 -21.953125 L 11.59375 -8.546875 C 11.59375 -7.617188 11.816406 -6.945312 12.265625 -6.53125 C 12.722656 -6.113281 13.484375 -5.90625 14.546875 -5.90625 L 17.796875 -5.90625 L 17.796875 0 L 13.40625 0 C 7.5 0 4.546875 -2.863281 4.546875 -8.59375 L 4.546875 -21.953125 L 1.25 -21.953125 L 1.25 -27.703125 L 4.546875 -27.703125 L 4.546875 -34.546875 L 11.59375 -34.546875 L 11.59375 -27.703125 L 17.796875 -27.703125 L 17.796875 -21.953125 Z M 11.59375 -21.953125 "/></g></g></g><g fill="#050a30" fill-opacity="1"><g transform="translate(186.389773, 52.390841)"><g><path d="M 1.65625 -13.953125 C 1.65625 -16.753906 2.210938 -19.238281 3.328125 -21.40625 C 4.441406 -23.570312 5.957031 -25.238281 7.875 -26.40625 C 9.789062 -27.570312 11.929688 -28.15625 14.296875 -28.15625 C 16.367188 -28.15625 18.175781 -27.738281 19.71875 -26.90625 C 21.269531 -26.070312 22.515625 -25.019531 23.453125 -23.75 L 23.453125 -27.703125 L 30.5 -27.703125 L 30.5 0 L 23.453125 0 L 23.453125 -4.046875 C 22.546875 -2.742188 21.300781 -1.664062 19.71875 -0.8125 C 18.132812 0.03125 16.3125 0.453125 14.25 0.453125 C 11.914062 0.453125 9.789062 -0.144531 7.875 -1.34375 C 5.957031 -2.550781 4.441406 -4.242188 3.328125 -6.421875 C 2.210938 -8.609375 1.65625 -11.117188 1.65625 -13.953125 Z M 23.453125 -13.84375 C 23.453125 -15.550781 23.117188 -17.007812 22.453125 -18.21875 C 21.785156 -19.4375 20.882812 -20.367188 19.75 -21.015625 C 18.613281 -21.671875 17.394531 -22 16.09375 -22 C 14.800781 -22 13.601562 -21.679688 12.5 -21.046875 C 11.394531 -20.410156 10.5 -19.484375 9.8125 -18.265625 C 9.132812 -17.054688 8.796875 -15.617188 8.796875 -13.953125 C 8.796875 -12.285156 9.132812 -10.828125 9.8125 -9.578125 C 10.5 -8.328125 11.398438 -7.367188 12.515625 -6.703125 C 13.640625 -6.035156 14.832031 -5.703125 16.09375 -5.703125 C 17.394531 -5.703125 18.613281 -6.023438 19.75 -6.671875 C 20.882812 -7.328125 21.785156 -8.257812 22.453125 -9.46875 C 23.117188 -10.6875 23.453125 -12.144531 23.453125 -13.84375 Z M 23.453125 -13.84375 "/></g></g></g><g fill="#050a30" fill-opacity="1"><g transform="translate(218.28457, 52.390841)"><g><path d="M 18.75 0 L 13.046875 -8.59375 L 8 0 L 0.5 0 L 9.546875 -13.90625 L 0.40625 -27.703125 L 8.296875 -27.703125 L 13.953125 -19.15625 L 19.046875 -27.703125 L 26.546875 -27.703125 L 17.453125 -13.90625 L 26.65625 0 Z M 18.75 0 "/></g></g></g></g></g></g><g clip-path="url(#3170ccdf39)"><g transform="matrix(1, 0, 0, 1, -0.000000000000003553, 3)"><g clip-path="url(#c6aa64dabf)"><g clip-path="url(#d8e2c437a6)"><path fill="#050a30" d="M 0.695312 0.609375 L 14.164062 0.609375 L 14.164062 28.289062 L 0.695312 28.289062 Z M 0.695312 0.609375 " fill-opacity="1" fill-rule="nonzero"/></g></g></g></g><g clip-path="url(#ab1337bc04)"><g transform="matrix(1, 0, 0, 1, -0.000000000000003553, 3)"><g clip-path="url(#3f22621b2d)"><g clip-path="url(#e42b09892c)"><path fill="#050a30" d="M 28.386719 0.609375 L 28.386719 14.078125 L 0.707031 14.078125 L 0.707031 0.609375 Z M 28.386719 0.609375 " fill-opacity="1" fill-rule="nonzero"/></g></g></g></g><g clip-path="url(#9ef581c6de)"><g transform="matrix(1, 0, 0, 1, 47, 35)"><g clip-path="url(#23ac1926a7)"><g clip-path="url(#602ff545d5)"><path fill="#050a30" d="M 13.566406 28.480469 L 0.09375 28.480469 L 0.09375 0.800781 L 13.566406 0.800781 Z M 13.566406 28.480469 " fill-opacity="1" fill-rule="nonzero"/></g></g></g></g><g clip-path="url(#c7fd2e5cb6)"><g transform="matrix(1, 0, 0, 1, 32, 50)"><g clip-path="url(#b11f248456)"><g clip-path="url(#cf23509235)"><path fill="#050a30" d="M 0.875 13.480469 L 0.875 0.0078125 L 28.554688 0.0078125 L 28.554688 13.480469 Z M 0.875 13.480469 " fill-opacity="1" fill-rule="nonzero"/></g></g></g></g><g clip-path="url(#53429f8878)"><g clip-path="url(#40fa99efe2)"><g transform="matrix(1, 0, 0, 1, -0.000000000000003553, 36)"><g clip-path="url(#d861172525)"><g clip-path="url(#0857bbce66)"><g clip-path="url(#213091acb6)"><path fill="#050a30" d="M 27.636719 0.539062 L 27.636719 27.480469 L 0.695312 27.480469 L 0.695312 0.539062 Z M 27.636719 0.539062 " fill-opacity="1" fill-rule="nonzero"/></g></g></g></g></g></g><g clip-path="url(#dba8ec55cb)"><g clip-path="url(#fad537033e)"><g transform="matrix(1, 0, 0, 1, 33, 3)"><g clip-path="url(#3b359b02e5)"><g clip-path="url(#3866a6c30a)"><g clip-path="url(#b7047bcbe3)"><path fill="#dc2618" d="M 0.625 27.550781 L 0.625 0.609375 L 27.566406 0.609375 L 27.566406 27.550781 Z M 0.625 27.550781 " fill-opacity="1" fill-rule="nonzero"/></g></g></g></g></g></g></g></g></svg>